<?xml version="1.0" encoding="UTF-8"?>
<svg id="Warstwa_1" xmlns="http://www.w3.org/2000/svg" version="1.1" viewBox="0 0 24 24">
  <!-- Generator: Adobe Illustrator 29.3.1, SVG Export Plug-In . SVG Version: 2.1.0 Build 151)  -->
  <path d="M23.5,13.966v6.623c0,.591-.445,1.071-.994,1.071h-2.375v-.77c0-.591-.445-1.071-.994-1.071H4.862c-.549,0-.994.479-.994,1.071v.77H1.494c-.549,0-.994-.479-.994-1.071v-6.623c0-.591.445-1.071.994-1.071h21.013c.549,0,.994.479.994,1.071Z" fill="none" stroke="#fefefe" stroke-linecap="round" stroke-miterlimit="10"/>
  <path d="M20.132,21.659v.77c0,.591-.445,1.071-.994,1.071H4.862c-.549,0-.994-.479-.994-1.071v-.77" fill="none" stroke="#fefefe" stroke-linecap="round" stroke-miterlimit="10"/>
  <path d="M4.868.5h14.264c.552,0,1,.448,1,1v11.395H3.868V1.5c0-.552.448-1,1-1Z" fill="none" stroke="#fefefe" stroke-linecap="round" stroke-miterlimit="10"/>
</svg>