<?xml version="1.0" encoding="UTF-8"?>
<svg id="Warstwa_2" xmlns="http://www.w3.org/2000/svg" version="1.1" viewBox="0 0 24 24">
  <!-- Generator: Adobe Illustrator 29.3.1, SVG Export Plug-In . SVG Version: 2.1.0 Build 151)  -->
  <defs>
    <style>
      .st0, .st1 {
        fill: none;
        stroke: #fff;
        stroke-linejoin: round;
      }

      .st1 {
        stroke-linecap: round;
      }
    </style>
  </defs>
  <path class="st0" d="M16.018,1.563c-1.285-.68-2.752-1.063-4.309-1.063C6.607.5,2.47,4.63,2.47,9.723c0,3.137,1.57,5.909,3.969,7.576.002.002.002.004.004.004,1.454,1.008,3.213,1.609,5.108,1.642h.008c.05.002.101.002.151.002.046,0,.096,0,.142-.002h.01c1.897-.031,3.657-.63,5.11-1.638.002-.002.004-.002.006-.004,2.4-1.667,3.972-4.441,3.972-7.579,0-1.012-.163-1.984-.465-2.894"/>
  <path class="st1" d="M6.989,23.5v-3.406h-3.351l2.8-2.795s.002.004.004.004c1.454,1.008,3.213,1.609,5.108,1.642l-4.561,4.555Z"/>
  <path class="st1" d="M19.763,20.094h-3.351v3.406l-4.561-4.555h.01c1.897-.031,3.657-.63,5.11-1.638l2.792,2.787Z"/>
  <polyline class="st1" points="16.399 4.533 17.509 5.641 19.731 3.424"/>
  <g id="Warstwa_3">
    <path class="st1" d="M14.664,10.106c1.241,2.121-.316,4.765-2.9,4.848-.043.001-.087.002-.13.002s-.087,0-.13-.002c-2.585-.081-4.141-2.726-2.9-4.848l.984-1.681h0l1.923-3.286c.055-.094.192-.094.248,0l1.922,3.285h0s.984,1.682.984,1.682Z"/>
  </g>
  <ellipse class="st1" cx="18.065" cy="4.354" rx="3.466" ry="3.459"/>
</svg>