<?xml version="1.0" encoding="UTF-8"?>
<svg id="Warstwa_1" xmlns="http://www.w3.org/2000/svg" version="1.1" viewBox="0 0 24 24">
  <!-- Generator: Adobe Illustrator 29.3.1, SVG Export Plug-In . SVG Version: 2.1.0 Build 151)  -->
  <path d="M22.35,13.413c-1.064-.628-1.064-2.197,0-2.825l.831-.49c.306-.181.409-.579.234-.89l-3.341-5.915c-.177-.312-.565-.418-.87-.239l-.832.491c-1.064.628-2.394-.157-2.394-1.413v-.981c0-.359-.285-.651-.636-.651h-6.683c-.352,0-.636.291-.636.651v.981c0,1.256-1.33,2.04-2.394,1.413l-.832-.491c-.306-.179-.694-.073-.87.239L.585,9.208c-.175.311-.072.709.234.89l.831.49c1.064.628,1.064,2.197,0,2.825l-.831.49c-.306.181-.409.579-.234.89l3.341,5.915c.177.312.565.418.87.239l.832-.491c1.064-.628,2.394.157,2.394,1.413v.981c0,.359.285.651.636.651h6.683c.352,0,.636-.291.636-.651v-.981c0-1.256,1.33-2.04,2.394-1.413l.832.491c.306.179.694.073.87-.239l3.341-5.915c.175-.311.072-.709-.234-.89l-.831-.49Z" fill="none" stroke="#fefefe" stroke-linecap="round" stroke-linejoin="round"/>
  <ellipse cx="12" cy="12" rx="3.978" ry="4.066" fill="none" stroke="#fefefe" stroke-linecap="round" stroke-miterlimit="10"/>
</svg>