<?xml version="1.0" encoding="UTF-8"?>
<svg id="Warstwa_1" xmlns="http://www.w3.org/2000/svg" version="1.1" viewBox="0 0 24 24">
  <!-- Generator: Adobe Illustrator 29.3.1, SVG Export Plug-In . SVG Version: 2.1.0 Build 151)  -->
  <g>
    <ellipse cx="12" cy="9.971" rx="4.065" ry="4.059" fill="none" stroke="#fefefe" stroke-linecap="round" stroke-miterlimit="10"/>
    <path d="M6.25,19.075c1.47,1.47,3.503,2.379,5.75,2.379s4.279-.909,5.749-2.379h0c0-1.858-1.508-3.363-3.368-3.363h-4.763c-1.86,0-3.368,1.506-3.368,3.363h0Z" fill="none" stroke="#fefefe" stroke-linecap="round" stroke-linejoin="round"/>
  </g>
  <g>
    <path d="M7.948,10.293c-.515.239-1.091.372-1.697.372-2.245,0-4.065-1.818-4.065-4.061s1.819-4.059,4.065-4.059c2.136,0,3.889,1.646,4.053,3.738" fill="none" stroke="#fefefe" stroke-linecap="round" stroke-miterlimit="10"/>
    <path d="M8.706,12.347h-.002c-.024-.002-.047-.002-.072-.002H3.869c-1.86,0-3.369,1.507-3.369,3.364,1.471,1.469,3.504,2.379,5.751,2.379.049,0,.099,0,.148-.002" fill="none" stroke="#fefefe" stroke-linecap="round" stroke-linejoin="round"/>
    <path d="M11.998,15.712l.002-.002c0-.623-.169-1.206-.467-1.706" fill="none" stroke="#fefefe" stroke-linecap="round" stroke-linejoin="round"/>
  </g>
  <g>
    <path d="M16.053,10.293c.515.239,1.091.372,1.697.372,2.245,0,4.065-1.818,4.065-4.061s-1.819-4.059-4.065-4.059c-2.136,0-3.889,1.646-4.053,3.738" fill="none" stroke="#fefefe" stroke-linecap="round" stroke-miterlimit="10"/>
    <path d="M15.296,12.347h.002c.024-.002.046-.002.07-.002h4.764c.93,0,1.772.377,2.382.986s.987,1.45.987,2.379c-1.471,1.469-3.504,2.379-5.749,2.379-.05,0-.101,0-.15-.002" fill="none" stroke="#fefefe" stroke-linecap="round" stroke-linejoin="round"/>
    <path d="M12.002,15.712l-.002-.002c0-.623.169-1.206.467-1.706" fill="none" stroke="#fefefe" stroke-linecap="round" stroke-linejoin="round"/>
  </g>
</svg>