<?xml version="1.0" encoding="UTF-8"?>
<svg id="Warstwa_1" xmlns="http://www.w3.org/2000/svg" version="1.1" viewBox="0 0 24 24">
  <!-- Generator: Adobe Illustrator 29.3.1, SVG Export Plug-In . SVG Version: 2.1.0 Build 151)  -->
  <path d="M12.001,1c2.831,0,5.133,2.305,5.133,5.138s-2.303,5.138-5.133,5.138-5.133-2.305-5.133-5.138S9.17,1,12.001,1M12.001,0C8.614,0,5.868,2.748,5.868,6.138s2.746,6.138,6.133,6.138,6.133-2.748,6.133-6.138S15.388,0,12.001,0h0Z" fill="#fefefe"/>
  <path d="M3.326,19.903c2.218,2.222,5.285,3.597,8.675,3.597s6.455-1.375,8.673-3.597h0c0-2.808-2.275-5.085-5.081-5.085h-7.186c-2.806,0-5.081,2.277-5.081,5.085h0Z" fill="none" stroke="#fefefe" stroke-linecap="round" stroke-linejoin="round"/>
</svg>